<?xml version="1.0" encoding="UTF-8"?>
<svg id="Livello_1" xmlns="http://www.w3.org/2000/svg" version="1.1" viewBox="0 0 500 107">
  <!-- Generator: Adobe Illustrator 30.3.0, SVG Export Plug-In . SVG Version: 2.1.3 Build 182)  -->
  <defs>
    <style>
      .st0 {
        fill: #fff;
      }
    </style>
  </defs>
  <g id="surface1">
    <path class="st0" d="M152.8,1.05c-12.71.79-18.22,6.9-22.35,11.24-4.43,4.63-6.9,14.39-6.9,14.39V1.25h-49.53c-3.74,0-7.29,1.57-9.95,5.32-2.76,3.65-14.08,22.37-14.08,22.37h195.88V1.05h-93.07ZM399.4,1.05c-12.6.79-18.22,6.9-22.35,11.24-4.43,4.63-6.9,14.39-6.9,14.39v2.27h128.82V1.05h-99.57ZM250.69,1.15v27.79h27.87V1.15h-27.87ZM342.09,1.15v27.79h27.77V1.15h-27.77ZM48.8,30.62L.94,105.92h32.7l46.09-71.95-30.93-3.35ZM250.99,31.01v40.54c-.04-.83-.1-2.01-.1-2.01-.69-4.14-8.57-22.47-25.51-24.05-10.14-.99-100.45-8.18-100.45-8.18,1.77,9.07,5.81,13.7,8.57,16.26,6.3,6.01,16.25,7.79,16.25,7.79,2.36.19,69.63,5.81,69.63,5.81,2.17.1,6.21.69,6.11,6.01,0,.69-.59,5.33-5.72,5.33h-97.4v-41.4l-27.08-1.97c-.1,0-.1,70.76-.1,70.76h130.19c22.65-4.53,25.02-25.23,25.02-25.23.4-2.26.53-4.25.59-6.02v5.72c4.43,23.65,25.8,25.53,25.8,25.53,0,0,2.17.1,2.56.19h63.52s27.18-2.17,27.18-28.38l-.2-38.73-27.37-1.68v32.23s-.1,9.26-9.06,9.26h-46.88s-7.98-.69-7.98-9.17v-36.66l-27.58-1.97ZM371.83,39c2.66,9.36,6.3,12.22,9.06,14.78,6.3,6.11,15.66,7.49,15.66,7.49,2.37.2,70.32,5.91,70.32,5.91,2.16.1,6.6.3,6.6,5.62,0,1.58-.79,3.26-1.77,4.14,0,0-2.36,1.28-4.63,1.28h-96.71l-.3,27.89h99.66c25.02-1.48,28.56-25.23,28.56-25.23.88-6.21.2-11.33.2-11.33-.69-5.62-8.67-22.57-25.71-24.24-10.04-.99-100.94-6.31-100.94-6.31Z"/>
  </g>
</svg>