<?xml version="1.0" encoding="UTF-8"?>
<svg id="_Слой_1" data-name="Слой_1" xmlns="http://www.w3.org/2000/svg" version="1.1" viewBox="0 0 1000 324.3">
  <!-- Generator: Adobe Illustrator 30.3.0, SVG Export Plug-In . SVG Version: 2.1.3 Build 182)  -->
  <defs>
    <style>
      .st0, .st1 {
        fill: #fff;
      }

      .st1 {
        fill-rule: evenodd;
      }
    </style>
  </defs>
  <path class="st1" d="M581.15,244.92l39.31-108.53c13.11-36.12-34.95-23.02-45.87-14.62-8.4,6.55-23.86,21.34-29.57,36.96l-31.25,86.19h-67.87l39.31-108.53c13.1-36.12-34.95-23.02-45.87-14.62-8.4,6.55-23.86,21.34-29.57,36.96l-31.25,86.19h-67.71l62.5-172.21c21.67,0,33.27,5.04,43.18,14.62,3.53,3.53,5.88,8.07,7.05,12.94,10.08-6.21,20.67-11.76,31.59-16.47,16.8-7.06,34.95-10.92,53.26-11.26,21.67,0,33.27,5.04,43.18,14.62,3.53,3.53,6.05,8.06,7.06,12.94,10.08-6.22,20.67-11.76,31.59-16.47,16.8-7.06,34.95-10.92,53.26-11.26,21.67,0,33.27,5.04,43.18,14.62,9.75,9.58,9.58,27.22,6.05,36.96l-43.68,120.63-67.88.34h0ZM683.46,214h0l-8.23,23.86c24.36,4.7,49.06,7.06,73.92,7.06,40.16,0,56.62-4.03,77.46-14.62,17.81-9.07,29.4-18.65,34.44-35.28,4.36-14.11-1.18-27.55-13.95-36.12-12.77-8.57-25.2-12.6-39.82-20.66-12.93-7.06-19.83-12.43-18.99-19.83,1.85-15.63,18.48-20.67,41.34-20.67s43.85,2.02,65.36,5.88l8.57-23.86c-24.53-4.71-49.23-7.06-74.1-7.06-40.32,0-56.79,4.03-77.62,14.62-17.81,9.07-29.4,18.65-34.44,35.28-4.37,14.11,1.17,27.55,13.94,36.12,12.77,8.57,25.21,12.6,39.82,20.66,12.93,7.06,19.83,12.43,18.98,19.83-1.85,15.63-18.48,20.67-41.33,20.67s-43.85-2.02-65.36-5.88h0ZM929.44,79.59h0l-9.07,25.03c23.19-4.37,46.87-6.72,70.56-7.06l9.07-25.03c-23.69.34-47.21,2.69-70.56,7.06h0ZM937.49,244.92h-67.87l44.52-122.98c23.35-4.37,46.88-6.72,70.56-7.06l-47.21,130.04h0Z"/>
  <path class="st1" d="M107.86,138.9c32.76,9.58,61.16-10.58,67.04-17.98,1.01-1.18.67-1.34-.34-.67-4.87,4.03-10.25,7.22-15.96,9.91-23.86,11.76-49.06,5.54-49.73,4.03-.67-1.18,1.68-1.01,1.68-1.01,51.08-1.68,61.16-24.03,60.99-24.87,0-.84-.84.17-.84.17-13.27,17.3-47.72,19.15-47.72,19.15-9.07.84-16.47-.67-21-4.87-1.18-1.18-2.02-2.52-2.69-4.03h-.17c-.67,1.34-1.68,2.52-2.69,3.7-1.17,1.51-3.02,2.18-4.2,1.34-3.7-2.52,6.22-16.63,14.11-22.85.34-.34,1.51-1.34.84-1.01-17.3,7.22-30.24,22.18-34.95,40.49-1.51,5.38-2.18,11.09-2.18,16.63s.67,11.42,2.02,16.97c2.01,8.9,5.38,17.47,9.74,25.37.34.5.34.17.5.17,1.18-2.18,2.19-4.54,2.86-7.06.67-2.86,1.68-5.71,2.86-8.4,3.19-5.21,20.16-3.86,15.46-7.39-1.34-1.01-2.69-2.18-3.87-3.53-2.35-2.52-4.54-5.21-6.55-8.06-4.37-5.88-7.06-12.94-7.56-20.33,0-.34.17-.34.34,0,3.69,10.59,11.59,19.15,21.67,23.86,5.54,2.35,11.26,3.87,17.14,4.54.51,0,.51-.17,0-.17-12.6-2.85-25.2-11.42-30.41-21.67,0,0-2.18-3.36-.84-4.03,1.34-.67,3.53,2.18,5.71,4.2,4.54,4.03,10.08,7.22,15.96,8.9,8.91,2.52,18.31,2.69,27.39.67.34,0,.34-.17,0-.17-7.9.84-15.96.17-23.52-2.18-15.29-5.88-19.83-13.44-18.65-14.79,1.51-1.68,19.32,15.29,48.39,2.52,6.05-2.69,11.59-6.22,16.63-10.42.34-.34.17-.67,0-.5-9.74,5.21-19.15,10.58-33.43,11.43-8.74.5-17.48-1.68-25.03-6.05-1.18-.84-1.68-1.34-1.18-1.85.67-.84,2.18-.17,2.18-.17h0Z"/>
  <path class="st1" d="M223.29,188.3c-1.51,1.01-3.19,1.34-5.04,1.18-1.34-.17-2.69-.17-4.03,0-.34,0-.5.17-.67.34-2.35,2.18-3.7,1.17-3.53-.34.17-1.18.34-2.35.84-3.53,1.18-1.85,2.02-3.86,2.86-6.05.34-1.85-.17-3.7-1.01-5.38-.34-.84-1.51-4.03,2.52-3.86.5,0,1.01-.17,1.34-.5,2.86-2.19,4.37-5.54,4.2-9.07,0-.17-.17-.34-.17-.17-.84,1.51-2.35,2.69-3.86,3.36-1.34.5-2.52,1.17-3.7,1.85-.34.34-.5.67-.67,1.01-1.17,2.86-2.52,1.68-2.69,1.34-.84-1.51-2.18-2.86-3.7-3.86-4.54-2.52-9.74-3.53-14.95-3.03-2.52.17-5.04.5-7.39.84-1.18.17-2.35.33-3.36.33-4.71.17-1.51-5.21,2.35-6.21,2.86-.84,6.05-.17,8.23,1.85.17.17.34.17.34,0-1.51-3.69-7.9-16.8-30.41-14.95-.34,0-.34.17-.17.34,4.7.84,9.07,2.18,13.44,4.37,1.34.67,4.03,2.69,3.36,5.54-1.18,2.69-3.19,5.04-5.71,6.72-2.01.67-4.2.5-6.05-.5-4.37-2.35-7.23-6.89-7.73-11.76,0,0-.17-.34-.17,0-1.68,7.39,2.86,14.79,10.25,16.47.34.17.84.17,1.18.17,2.18.5,2.02,4.37,1.51,6.22-.5,2.18-3.87,2.35-6.38,2.01-2.35-.34-4.54-1.34-6.38-2.69-3.03-2.35-5.54-5.21-7.56-8.4-.33-.5-.5-.5-.33,0,1.85,4.54,4.87,8.57,8.9,11.42,4.87,3.7,10.92,5.54,17.14,5.04,4.03-.34,7.9-1.18,11.76-2.52.33-.17.33-.34,0-.34-5.21,0-11.76,0-13.11-3.53-.5-1.18-.84-6.22,1.85-6.05,3.7.17,7.56,0,11.26-.67,3.53,0,7.06.5,10.42,1.68,2.52.84,4.54,2.35,6.05,4.54,2.69,3.86,2.01,10.58,1.01,16.13-1.01,4.71-2.52,9.24-4.37,13.78-3.53,8.91-10.75,22.51-16.46,27.55-7.39,5.71-16.13,9.74-25.37,11.76-4.2,1.17-8.57,1.85-12.77,2.02-10.25.5-18.48-1.01-23.86-5.71-2.69-2.52-4.54-5.54-5.88-8.9-1.68-8.23,2.86-10.58,13.95-7.23,3.53,1.01,5.71-2.02,8.4-2.18,1.34,0,2.35.84,3.53.5.84-.17,1.51-1.68,2.18-2.69.67-1.01,1.51-1.85,2.52-2.52,3.19-1.85,6.55.34,8.74,1.68.17.17.34,0,.34-.17-3.19-4.2-8.9-5.54-13.78-3.53-1.01.5-2.02,1.85-3.19,2.69-2.35.84-4.87,1.17-7.22.67-.84,0-1.85.17-2.52-.34.67-3.36,3.86-3.36,6.22-4.87,3.87-1.85,6.38-5.71,6.89-9.91,0-.67-.17-1.51.34-2.18.5-.67,1.68-.67,2.86-.5,1.51.34,3.19.84,4.54,1.51.34.17-.5-.67-.84-1.01-4.37-3.53-12.43-1.85-14.28,2.01-.34.67,1.51.67,1.68,1.51.17.84-1.18,2.18-1.85,2.86-1.51,1.68-3.36,3.02-5.21,4.2-1.01.67-1.85,1.68-3.02,1.68.67-1.85,1.68-3.7,2.85-5.21.67-1.34,2.35-4.87,1.51-6.22-.67-.84-3.53-.34-3.86-1.51-.34-.84.34-1.85.84-2.35,1.68-1.34,3.7-2.35,5.88-2.69.34,0,.17-.17-.17-.17-3.86.17-9.91,1.51-11.43,4.37-1.01,1.68-.5,4.03,1.34,5.04.34.17.67.33,1.01.33.84,3.02-.84,8.23-4.71,8.74-5.21.67-9.07-2.86-6.89-11.93,0,0,0-.34-.17-.17l-.51.5c-.34.34-.5.67-.84.84-3.53,3.19-11.26,8.07-17.81,4.87-1.34-.67-2.35-1.68-3.02-3.02-3.19-6.89,4.03-11.76,9.41-10.75,2.35.34,4.37,2.02,4.03,4.54-.5,1.68-2.02,2.86-3.86,2.69-1.18,0-2.19-.5-3.19-1.18-1.01-1.01-1.18-2.02-1.35-1.68-1.85,8.07,9.41,7.56,13.27,3.7,4.03-3.36,4.87-9.24,2.02-13.61-2.02-2.86-5.54-4.2-9.07-3.86-3.53.17-7.06,1.18-10.25,2.86-3.02,2.35-3.7,6.89-4.54,10.75-.67,3.86-2.35,7.39-4.87,10.25q0,.17.17.17c1.85-.17,3.53.5,4.7,1.68,2.52,2.35-1.85.5-4.7,2.18h-.17c-5.71,3.7-9.41,9.91-9.75,16.63,0,.34.17.67.34.34,2.02-2.69,4.87-4.87,8.06-5.88,2.52-.67,5.04-1.68,7.39-2.86.84-.5,1.34-1.51,1.51-2.35.51-2.19,2.69-2.52,2.52-.5-.17,3.02-2.35,5.38-1.01,8.9,1.34,3.7,5.21,5.38,8.57,7.56.67.5,2.52,2.01-2.69,3.69h-.34c-.17,0-.17.17-.34.17s-.17,0-.34.17c-4.87,3.19-7.89,8.4-8.23,14.11,0,.34.17.51.17.34,1.68-2.35,4.03-4.03,6.89-5.04,2.18-.67,4.2-1.51,6.22-2.52.67-.5,1.01-1.01,1.18-1.85,1.51-4.2,2.85-2.35,3.02-1.01.17,1.34.67,2.69,1.34,3.86,1.68,2.69,5.71,2.35,9.58,3.03,1.34.17,2.86,1.34-.34,3.02-.34.17-.67.34-.84.67-3.86,4.03-5.71,9.58-4.7,15.12,0,.34.17.5.34.17,1.18-2.52,3.03-4.7,5.38-6.22,1.85-1.01,3.69-2.18,5.21-3.7.5-.67.84-1.34.67-2.18-.17-4.03,2.01-3.36,2.69-2.35,1.17,1.85,2.01,3.86,4.37,4.7,2.02.34,4.2,0,6.05-.84,1.51-.34,2.86-.67,4.37-.84,2.52-.34,1.68,2.02.34,3.7l-.17.17v.17c-.17.17-.17.34-.34.5-1.85,4.37-1.51,9.41,1.01,13.44.17.34.34.34.34,0,0-2.35.84-4.71,2.35-6.55,1.17-1.34,2.18-2.86,3.02-4.54.17-.5.17-1.01,0-1.34-.17-.34,0,0,0-.17v-.17c-1.34-3.87.67-4.37,2.35-3.87,2.86,1.01,5.88,1.01,8.74,0,2.35-1.01,4.37-2.52,6.22-4.2,1.68-1.68,3.53-3.19,5.71-4.37,1.51-.5,2.35.34,2.02,3.02-.17.67,0,1.18.17,1.68,1.85,3.86,5.54,6.55,9.74,7.39q.34,0,.17-.17c-1.51-1.51-2.69-3.36-3.02-5.54-.34-1.68-.67-3.19-1.34-4.7-.17-.17-.34-.5-.5-.67l-.17-.17c-.17-.17-.34-.17-.51-.34-2.69-1.51-1.68-3.53,1.01-4.2,5.54-1.18,11.76-2.52,14.62-6.22,1.51-2.52,2.52-5.21,2.86-8.07.5-2.52,1.17-5.04,2.01-7.39.34-1.01.67-3.86,5.04-.34.51.5,1.01.67,1.68.84,4.2.5,8.4-1.18,11.43-4.37.17-.17.17-.34,0-.34-2.01.51-4.2.51-6.22-.34-1.51-.67-3.19-1.18-4.7-1.51h-.67c-5.37,1.01-2.69-2.18-2.18-2.86,1.51-2.18,3.53-3.86,5.04-6.05,1.85-3.36,3.02-7.22,3.36-11.09.17-.84.67-3.03,5.04-1.68.17.17.34.17.67.17h1.01c3.53-.67,6.39-2.86,7.9-6.05q-.34.67-.5.67h0Z"/>
  <g>
    <path class="st0" d="M267.46,55.12C237.21,34.27,181.94,8.62,136.09.16c-1.24-.23-1.87-.21-2.96,0C88.3,8.33,33.92,33.57,1.76,55.12.81,55.71,0,57.19,0,58.35c-.18,66.08,11.69,118.23,28.1,157.09,10.51,25.06,27.7,53.92,50.29,74.28,16.71,15.33,33.69,25.7,54.74,34.32.85.34,2.15.33,2.96,0,22.32-8.84,40.73-21.06,54.74-34.32,22.85-20.33,39.95-50.53,50.28-74.28,18.49-44.86,28.29-97.41,28.12-157.09-.01-1.21-.75-2.6-1.77-3.23M234.01,211.97c-7.59,17.43-23.94,49.86-48.37,71.57-13.9,13.14-31.15,24.15-50.06,31.97-.32.11-.65.18-.98.19-.32,0-.65-.08-.96-.19-18.91-7.82-36.16-18.83-50.06-31.97-24.43-21.72-40.78-54.14-48.37-71.57C17.12,168.03,7.95,118.15,7.76,61.82c0-.9.47-1.76,1.23-2.27,19.65-13.15,45.8-26.1,73.39-36.59,19.07-7.25,35.69-12.18,51.7-15.17.18-.04.36-.05.53-.05.18,0,.36,0,.54.05,16,2.99,32.63,7.92,51.69,15.17,27.58,10.49,53.74,23.44,73.39,36.59.77.5,1.23,1.37,1.23,2.27-.18,56.33-9.34,106.21-27.45,150.14"/>
    <path class="st0" d="M75.86,197.39c-4.87-7.21-21.96-31.64-7.49-66.89,20.64-50.29,76.44-36.6,81.7-34.55-.05-4.71,2.99-8.45,7.87-9.52,1.58-.35,2.83-.33,4.23-.23.4.03.58.29.27.37-5.36,1.4-9.46,4.21-9.22,9.23.21,4.72,5.07,8.1,9.11,8.82h-.02s3.2.69,5.53-.75c.05-.03.07-.06.11-.08.63-.37,1.2-.78,2.01-1.02,1.67-.53,3.37-.66,5.1-.25.5.11,1.41.9,2.21.85.53-.02,1.31-.85,2.04-.87,3.19-.1,10.18,2.42,10.38,4.08.14,1.19-1.72,2.58-2.68,3.3-1.12.85-2.16,1.42-3.46,1.97-.31.14-.14.22-.03.21,5.61-.69,15.64-4.3,14.06,2.45-.15.65-.34,1.2-.46,1.56-.03.06-.02.17.13.12,5.47-1.89,7.2-6.7,6.44-13.19,0-.08-.11-.12-.16-.04-.44.74-1.26,1.65-1.81,2.04,0,0,0-.03,0-.05-.01-1.83.12-4.54-1.04-5.83-.04-.05-.11.01-.1.08.51,3.34-1.29,4.99-3.75,6.15-1.96-3.38-4.24-6.6-6.64-9.4-.06-.07-.19,0-.19.09-.01,1.06-.04,2.25-.3,3.19-.01.08-.1.1-.13.05-.75-1.88-2.28-2.96-4.18-3.21-1.27-.18-2.65.25-4.16,0-1.93-.3-4.18-1.68-4.32-3.18-.25-2.4,4.12-3.53,6.31-4.12.53,1.12,1.09,2.73,1.56,4.16.07.22.16.13.2.09,2.05-1.58,5.23-3.94,9.24-4.06.98-.03,3.18.37,3.52,1.06.79,1.62-1.2,3.55-1.86,4.17-1.2,1.11-.63.99-.57.97,3.65-.99,5.4-3.45,7.96-5.24,1.32,1.72,1.87,5.35,1.74,7.96,0,.13.16.2.24.11,2.73-2.96,2.81-7.53,2.54-12.71,2.82.92,4.78,2.57,6.66,4.72.2.23.32.18.18-.07-1.63-2.8-3.71-5.04-6.2-6.59-.95-.6-2.19-.91-2.92-1.63-.66-.63-1.47-2.92-2.33-3.06-1.11-.21-2.54,1.03-3.88,1.14-2.3.15-3.56-1.44-4.01-3.73-5.63,1.6-7.8-1.89-9.09-6.09-.22-.76-.22-1.75-.57-2.57-.42-.99-2.65-2.02-3.82-2.47-1.59-.62-3.51-.88-5.33-.6-1.62.27-2.86,1.06-4.77,1.17-4.61.26-9.45-2-13.18-3.84-15.4-7.6-25.98-20.63-28.52-23.56-.32-.35-.38-.08-.28.17,5.81,14.68,16.79,23.5,25.44,29.09,0,0-17.66-3.89-33.89-16.87-.21-.17-.46-.25-.11.21,1.74,2.3,7.46,9.37,15.64,15.61l.18.11c-8.41,3.4-20.82,4.75-30.82,6.99-.43.09-.57.29-.19.29,5.47.07,12.96,1.65,17.46,2.39-.04,0-.09,0-.14.02h0c-22.85.9-42.63,7.53-56.47,20.32-.18.17-.06.33.18.24,3.32-1.28,6.41-2.79,10.14-3.67-3.41,3.12-6.81,6.31-9.96,9.72,0,0,0,0,0,0-4.56,5.07-6.52,4.67-8.73,1.26-1.71-1.91-1.69-7.74.59-8.98,2.79.88,4.64-1.57,4.31-4.15-.48-3.7-4.65-6.27-7.17-7.96-.28-.18-.44-.13-.25.05,1.29,1.34,3.15,2.67,3.6,4.63.18.82.14,2.38-.68,2.61-1.3.38-2.07-1.06-3.34-.86-1.11.18-1.62,2.12-1.85,3.47-.24,1.34-.37,3.56-.29,5.12.03.83.34,2.15-.3,2.79-.76-.37-.92-1.37-1.27-2.12-1.22-2.67-3.32-6.27-2.45-9.83.54-.22,1.57.06,1.95-.3.18-2.22-1.4-4.27-2.84-5.69-1.89-1.88-5.54-3.18-8.59-2.35-.14.04-.19.17-.07.18,2.17.34,6.27.78,6.31,2.94.02.84-.99,2.01-1.27,2.7-1.59,3.96.23,9.02,2.15,11.58,1.11,1.48,2.7,2.85,1.76,5.59-1.22-.06-2.36-.91-3.51-1.54-1.64-.91-3.35-1.76-4.12-3.18-.83-1.55-.88-3.15-1.95-4.34-2.64-2.99-8.29-5.11-12.58-2.86-.14.08-.13.24.03.24,3.49-.09,6.67.24,8.06,2.53.64,1.06,1.04,2.83,1.17,4.44.05.63-.14,1.49.19,2.02.57.93,2.32.77,3.34,1.34,1.37.79,2.18,2.92,3.71,4.25.37.33.85.71,1.27.97,2.35,1.41,7.21,2.43,9.1,4.34,2.82,2.85,1.39,7.69.3,10.84-1.2,3.07-2.02,6.48-2.15,10.46,0,.14.15.27.24.19,2.73-2.66,5.5-6.03,9.25-7.96-3.23,6.54-6,14.08-8.22,21.99-1.92,6.85-4.7,18.23-.4,24.77.06.11.23.09.24,0,.27-2.25.34-4.71,1.83-5.77,2.65,6.31,7.19,18.95,21.19,31.54.24.21.36.1.14-.23M179.31,71.51c1.32.31,2.87.27,3.56.66,1.32.77,1.34,2.66,2.19,4.18-5.24.86-6.94-2.92-9.43-5.67.87.07,2.22.51,3.68.84"/>
    <path class="st0" d="M106.01,138.85c32.73,9.64,61.05-10.54,67.03-17.97.96-1.18.63-1.41-.29-.69-5.73,4.49-9.73,6.92-15.98,9.98-23.89,11.71-48.99,5.5-49.75,4.07-.61-1.17,1.72-1.05,1.72-1.05,51.05-1.69,61.03-23.96,60.98-24.86-.03-.79-.87.13-.87.13-13.39,17.24-47.88,19.14-47.88,19.14-8.98.76-16.44-.63-20.95-4.89-1.08-1-2.12-2.59-2.64-4.05-.03-.07-.14-.07-.18,0-.72,1.32-1.5,2.38-2.66,3.72-1.25,1.44-2.98,2.17-4.15,1.37-3.67-2.52,6.25-16.55,14.16-22.77.4-.32,1.44-1.3.88-1.07-24.78,10.84-32.41,30.53-35.15,40.41-1.41,5.05-2.25,10.84-2.25,16.69s.81,11.75,2.05,16.97c2.44,10.26,5.4,17.41,9.78,25.42.27.48.37.21.43.11,1.38-2,1.95-4.6,2.78-6.99.94-2.69,1.61-6.22,2.93-8.42,3.11-5.17,20.14-3.85,15.49-7.42-1.34-1.02-2.62-2.25-3.82-3.47-2.35-2.41-4.56-5.28-6.56-8.1-3.82-5.43-7.05-11.93-7.58-20.3-.02-.33.2-.39.32-.09,4.52,11.21,10.97,18.62,21.67,23.82,3.32,1.62,11.93,4.18,17.14,4.55.51.04.5-.14.04-.25-12.53-2.82-25.13-11.45-30.31-21.62,0,0-2.11-3.37-.81-3.99s3.53,2.15,5.64,4.18c4.05,3.87,10.14,7.08,16,8.87,7.84,2.42,18.69,2.72,27.32.61.29-.07.29-.17,0-.15-8.35.61-17.38.12-23.45-2.24-15.23-5.92-19.84-13.45-18.65-14.75,1.59-1.74,19.31,15.23,48.35,2.47,5-2.19,12.54-6.65,16.57-10.42.39-.36.22-.61-.03-.46-9.81,5.28-19.19,10.5-33.44,11.35-5.95.36-17.26-.83-24.94-5.96-1.15-.76-1.67-1.27-1.22-1.85.6-.77,2.25-.03,2.25-.03"/>
    <path class="st0" d="M221.31,188.23c-1.27,1.03-3.1,1.15-5.02,1.23-.66.02-2.76-.35-4.06-.03-.29.07-.53.21-.74.38t-.02,0s0,0,0,0c-2.32,2.11-3.69,1.23-3.5-.34.21-1.73.33-2.08.87-3.45.85-2.14,2.33-3.82,2.84-5.98.49-2.08-.35-3.6-1.07-5.3-.39-.89-1.58-3.97,2.49-3.83.02,0,.02-.02.04-.02.42-.02.87-.16,1.33-.47,2.74-1.86,4.07-5.17,4.24-9.04.01-.21-.09-.31-.16-.14-.66,1.5-2.23,2.46-3.89,3.41-.58.33-2.61.96-3.63,1.84-.33.29-.51.66-.59,1.07-1.13,2.84-2.53,1.63-2.75,1.29-.99-1.57-2.15-2.92-3.64-3.86-3.73-2.35-9.58-3.48-14.88-3.06-2.5.21-5,.45-7.42.78-1.14.15-2.28.29-3.4.39-4.65.14-1.44-5.12,2.42-6.15,3.33-.88,6.58.25,8.2,1.93.17.16.33.23.25.02-1.44-3.66-7.92-16.79-30.38-15.01-.3.02-.39.21-.13.26,4.7,1.12,9.24,2.01,13.35,4.29,1.34.75,4,2.68,3.38,5.48-.47,2.11-4.05,5.91-5.65,6.78-1.69.92-4.08.38-5.98-.45-4.08-2.42-6.97-6.09-7.68-11.73,0-.09-.12-.31-.16-.03-1.26,9.44,3.69,14.98,11.44,16.65,2.1.49,2,4.3,1.55,6.13-.54,2.19-3.77,2.35-6.3,2-2.73-.37-4.78-1.57-6.36-2.7-3.25-2.34-5.56-5.44-7.5-8.47-.28-.42-.51-.42-.34,0,1.89,4.65,5.07,8.67,8.82,11.46,4.12,3.06,10.2,5.56,17.11,5.11,4.28-.28,8.21-1.2,11.71-2.45.31-.11.29-.35-.04-.35-5.24-.02-11.69-.05-13.13-3.57-.5-1.22-.77-6.28,1.81-5.99,4.55.51,7.39-.47,11.2-.72,3.18-.21,7.79.8,10.41,1.65,2.68.86,4.74,2.68,6.03,4.58,2.65,3.89,2.07,10.55,1.08,16.11-.89,4.98-2.73,9.54-4.4,13.69-3.59,8.94-10.75,22.5-16.44,27.49-6.86,5.79-15.38,9.12-25.35,11.68-4,1.02-8.51,1.83-12.82,2.01-10.21.46-18.45-.96-23.87-5.77-2.5-2.23-4.43-5.34-5.86-8.87-1.63-8.29,2.92-10.63,13.98-7.25,3.5,1.08,5.77-2.05,8.32-2.11,1.31-.03,2.29.88,3.52.59.81-.21,1.52-1.73,2.25-2.7.72-.97,1.63-1.98,2.54-2.51,3.2-1.83,6.49.32,8.78,1.68.21.12.4-.02.28-.21-2.36-3.5-8.8-6-13.76-3.59-1.06.51-1.97,1.88-3.22,2.61-2,1.14-4.66.82-7.24.67-.89-.05-1.85.21-2.55-.38.67-3.31,3.83-3.41,6.16-4.83,3.38-2.02,6.61-5.09,6.95-9.92.05-.65-.22-1.57.3-2.22.48-.63,1.69-.71,2.83-.59,1.66.18,3.3,1.11,4.61,1.54.32.13-.46-.69-.79-.95-4.37-3.59-12.36-1.9-14.27,2.02-.32.6,1.51.74,1.66,1.54.17.91-1.12,2.18-1.76,2.89-1.73,1.88-3.36,2.95-5.28,4.25-.97.63-1.8,1.76-2.94,1.63.57-2.29,1.81-3.19,2.84-5.2.68-1.34,2.41-4.82,1.47-6.27-.59-.89-3.46-.41-3.91-1.45-.37-.83.32-1.92.77-2.41,1.23-1.31,3.62-2.11,5.9-2.64.25-.05.13-.15-.21-.14-3.9.19-9.86,1.48-11.36,4.41-1.09,2.11-.12,5.13,2.25,5.4.92,2.95-.81,8.31-4.7,8.77-5.25.63-9.15-2.8-6.96-11.91.02-.08,0-.35-.2-.23-.2.12-.41.35-.56.47-.32.28-.58.6-.88.87-3.6,3.18-11.19,8.08-17.86,4.94-1.23-.56-2.52-2.02-2.98-3.02-3.13-6.82,4.05-11.69,9.45-10.74,2.32.41,4.45,2.09,3.96,4.48-.38,1.87-2.13,2.71-3.82,2.7-.85,0-2.26-.34-3.14-1.13-1.08-.99-1.26-2.04-1.36-1.67-1.79,8.13,9.33,7.49,13.27,3.67,3.63-3.53,5.15-9.15,2.06-13.59-1.8-2.58-4.86-4.09-8.99-3.77-3.42.26-8.16,1.31-10.25,2.93-2.95,2.27-3.63,6.96-4.51,10.76-1.63,7.08-4.29,9.47-4.88,10.26-.08.11,0,.23.18.2.75-.11,2.8-.21,4.76,1.73,2.45,2.41-1.86.44-4.75,2.22-.01,0-.03.02-.04.03-.05.02-.1.04-.16.07-5.59,3.11-8.73,9.26-9.74,16.68-.06.42.13.61.29.31,1.52-2.77,4.71-4.34,8.08-5.89,1.16-.53,5.2-1.41,7.3-2.93.82-.6,1.29-1.47,1.44-2.43,0,0,0,0,0,0,.56-2.2,2.68-2.44,2.6-.44-.12,3.02-2.32,5.38-.98,8.87,1.39,3.66,5.28,5.45,8.6,7.6.73.48,2.54,1.94-2.68,3.63-.06.02-.11.04-.17.05-.07.02-.12.05-.18.07-.15.04-.27.1-.36.18-.09.04-.18.07-.27.12-4.73,2.63-7.38,7.82-8.23,14.09-.06.36.11.52.24.26,1.28-2.34,3.98-3.67,6.84-4.97.98-.45,4.4-1.2,6.17-2.48.62-.45.99-1.09,1.16-1.8h0c1.48-4.28,2.81-2.33,3.05-1.08.25,1.34.55,2.7,1.27,3.8,1.72,2.62,5.79,2.3,9.59,2.98,1.34.25,2.88,1.34-.26,2.94,0,0,0,.01,0,.02-.31.16-.62.37-.92.63-3.89,3.5-5.28,8.98-4.73,15.09.03.35.21.47.29.19.7-2.48,2.97-4.32,5.38-6.18.82-.63,3.89-2.07,5.29-3.67.54-.61.74-1.37.7-2.15,0,0,.02,0,.02,0-.2-4.08,1.96-3.38,2.61-2.33,1.15,1.85,2.05,3.89,4.44,4.73,2.27.78,4.16-.33,6.07-.87,1.45-.41,2.99-.68,4.4-.87,2.43-.32,1.61,2.01.28,3.73-.04.06-.09.11-.13.17-.03.04-.06.07-.08.11-.02.02-.01.05-.02.07-.09.14-.19.28-.27.44-1.97,3.98-1.33,8.73,1.02,13.36.13.27.32.31.29.06-.23-2.18.98-4.34,2.29-6.56.46-.75,2.41-2.85,3.01-4.55.17-.47.16-.96.04-1.41,0-.03,0-.05,0-.08-.02-.04-.03-.08-.05-.13-.02-.07-.05-.14-.09-.21-1.42-3.78.69-4.44,2.4-3.84,3.03,1.06,6.17.99,8.71,0,2.49-.95,4.2-2.58,6.17-4.17,1.01-.81,3.88-3.71,5.67-4.33,1.5-.53,2.39.31,1.97,2.94,0,.02,0,.04,0,.05-.09.51-.05,1.1.22,1.75,1.52,3.73,5.12,6.13,9.68,7.32.26.06.4-.03.21-.17-1.62-1.15-2.36-3.26-3.06-5.48-.25-.76-.49-3.35-1.29-4.77-.14-.25-.33-.44-.53-.61-.03-.07-.09-.11-.18-.16h0s-.01,0-.01,0c-.17-.11-.36-.19-.55-.25-2.75-1.45-1.72-3.53,1.09-4.17,5.47-1.25,11.74-2.54,14.68-6.27,1.54-1.95,2.24-4.92,2.93-8.11.57-2.58,1.25-5.07,2.05-7.39.33-.94.69-3.78,5.03-.28h.02c.4.4.95.69,1.69.82,3.96.67,7.91-1.1,11.33-4.34.19-.18.18-.35-.02-.26-1.83.76-4.01.28-6.27-.29-.78-.21-3.1-1.37-4.73-1.44-.21,0-.42.01-.61.07-.03,0-.04-.01-.07,0-5.36.96-2.69-2.2-2.25-2.89,1.44-2.2,3.6-3.93,5.09-6.07,1.88-2.73,2.71-6.87,3.4-11.04.14-.85.7-3.03,5.03-1.6.18.1.41.17.63.21.04.01.06.02.09.03.01,0,.01,0,.02,0,.26.04.53.06.84.03,3.28-.39,5.99-2.72,7.93-6.06.11-.2.06-.33-.08-.21"/>
  </g>
</svg>