<?xml version="1.0" encoding="UTF-8"?>
<svg id="Livello_1" xmlns="http://www.w3.org/2000/svg" version="1.1" viewBox="0 0 800 800">
  <!-- Generator: Adobe Illustrator 30.3.0, SVG Export Plug-In . SVG Version: 2.1.3 Build 182)  -->
  <defs>
    <style>
      .st0 {
        fill: #fff;
      }
    </style>
  </defs>
  <path class="st0" d="M17.28,548.87c-29.94,20.97-24.4,57.09,43.91,79.68,68.31,22.59,147.71,27.26,217.57,14.68-2,0,3.99,0,0,0v-71.29l-67.87,23.06c-25.95,8.39-51.9,10.49-77.85,4.19-19.96-6.29-15.97-18.87,7.98-29.35l137.73-50.32v-77.58l-191.62,69.19c-23.95,8.38-47.91,20.97-69.86,37.74ZM480.36,234.35v203.39c81.84,41.93,145.71,0,145.71-109.03s-37.93-161.45-147.71-201.29c-57.89-20.97-117.77-39.84-177.65-52.42v605.97l139.72,44.03V215.48c0-23.06,0-39.84,15.97-33.55,21.96,6.29,23.95,29.35,23.95,52.42ZM739.85,500.65c-57.89-20.97-119.76-29.36-179.65-23.06-33.26,2.18-64.47,12.09-95.81,23.06v81.77l129.74-50.32c25.95-8.39,51.9-10.48,77.85-4.19,19.96,6.29,15.97,18.87-7.98,29.36l-199.61,77.58v79.68l275.46-106.94c19.96-8.39,37.92-18.87,53.89-35.65,13.97-20.97,7.98-50.32-53.89-71.29Z"/>
</svg>