<?xml version="1.0" encoding="UTF-8"?>
<svg id="Livello_1" xmlns="http://www.w3.org/2000/svg" version="1.1" viewBox="0 0 1000 180.22">
  <!-- Generator: Adobe Illustrator 30.3.0, SVG Export Plug-In . SVG Version: 2.1.3 Build 182)  -->
  <defs>
    <style>
      .st0 {
        fill: #fff;
      }
    </style>
  </defs>
  <path class="st0" d="M111,143.72c4,2.5,8,5,12,7,43,19,106.5,30.5,118.5,26.5,33.5-11,71-81.5,82.5-114,0,0-35,14-70.5,30.5-29.5,14-62,30-62,30l82.5-25s-22,52-51,58-80-14.5-80-14.5c4-3.5,58-43,184-94.5,5.5-4,9-10.5,10-17-29,3-57,11.5-83.5,24-53,25-142.5,89-142.5,89ZM19,118.22c9,11.5,46,21,51,22C47,124.22,0,80.22,0,80.22c5,13.5,11.5,26,19,38Z"/>
  <path class="st0" d="M128,112.72C152.5,94.72,239.5,21.22,323.5,1.22c0,0-44-7-106.5,12.5-22.5,7-55,38.5-115.5,97-8,4.5-37.5-12.5-54.5-20.5,0,0,28,44.5,38,57.5,15,20.5,42.5,32.5,42.5,32.5-2.5-2.5-21.5-22.5-27-34-3.5-5.5.5-13.5,27.5-33.5ZM639.5,32.22h-15v44.5h-28v-44.5h-15v52h58v-52ZM764.5,76.22h-37.5v-44h-15.5v52h46l7-8ZM771,32.22h15.5v52h-15.5v-52ZM958.5,39.72h34.5l7-7.5h-57v52h15.5v-25.5h33.5l6-8h-39.5v-11ZM533,67.22h41.5v-31c0-2-1.5-4-3.5-4h-53.5v51.5h15.5v-16.5ZM533,39.72h25c.5,0,1.5,0,1.5,2.5v17.5h-26.5v-20ZM703.5,52.22h-4.5v-15c0-3-1.5-5-4-5h-48.5v52h56.5l.5-32ZM688,76.22h-26v-16.5h26v16.5ZM688,52.22h-26v-12.5h24.5c1.5,0,1.5,2,1.5,2.5v10ZM502.5,39.72l8-7.5h-58v51.5h58l-8-7.5h-34.5v-14h39v-8.5h-39v-14h34.5ZM810,39.72h35l7.5-7.5h-58v51.5h50.5l7.5-7.5h-42.5v-36.5ZM770,120.72l6.5-7.5h-59v28h42.5v15.5h-44.5l9.5,8h51v-31.5h-43v-12.5h37ZM503,113.22h-55v51.5h15.5v-22h27.5v22h15.5v-47c.5-2-1-4-3.5-4.5ZM491,135.22h-27v-14.5h25.5c1.5,0,1.5,1.5,1.5,2.5v12ZM636,120.72l8-7.5h-58.5v51.5h58.5l-8-7.5h-35v-14h39.5v-8.5h-39.5v-14h35ZM432,121.22l8-8h-61v51.5h59v-28h-15.5v20.5h-27.5v-36h37ZM515,113.22v52h16v-30l15,10.5,15.5-10.5v30h15.5v-52l-31,20.5-31-20.5ZM709,142.72v-25c0-2.5-1.5-5-4-5h-56v52h15.5v-44h27c1.5,0,1.5,1.5,1.5,2.5v10h-25.5l28,31.5h18.5l-19.5-22h14.5ZM443.5,68.72v-31.5c0-2.5,0-5-3-5h-61.5v36l16,17.5v-46h30c2,0,2.5.5,2.5,2.5v16.5h-26.5l42.5,44.5v-17.5l-16-17.5h16v.5ZM930.5,32.22h-52.5v37.5l12.5,14.5h43.5v-48c0-2-1.5-4-3.5-4ZM918.5,76.22h-16.5l-8.5-10v-26.5h25v36.5Z"/>
</svg>