<?xml version="1.0" encoding="UTF-8"?>
<svg id="svg2" xmlns="http://www.w3.org/2000/svg" version="1.1" xmlns:cc="http://creativecommons.org/ns#" xmlns:dc="http://purl.org/dc/elements/1.1/" xmlns:inkscape="http://www.inkscape.org/namespaces/inkscape" xmlns:rdf="http://www.w3.org/1999/02/22-rdf-syntax-ns#" xmlns:sodipodi="http://sodipodi.sourceforge.net/DTD/sodipodi-0.dtd" xmlns:svg="http://www.w3.org/2000/svg" viewBox="0 0 936 224">
  <!-- Generator: Adobe Illustrator 30.3.0, SVG Export Plug-In . SVG Version: 2.1.3 Build 182)  -->
  <defs>
    <style>
      .st0 {
        fill: #fff;
      }

      .st1 {
        fill: #c3acda;
      }
    </style>
  </defs>
  <sodipodi:namedview id="base" bordercolor="#666666" borderopacity="1.0" inkscape:current-layer="flowRoot2993" inkscape:cx="443.34118" inkscape:cy="67.78611" inkscape:document-rotation="0" inkscape:document-units="px" inkscape:pageopacity="1" inkscape:pageshadow="2" inkscape:window-height="2066" inkscape:window-maximized="1" inkscape:window-width="3840" inkscape:window-x="-11" inkscape:window-y="-11" inkscape:zoom="2.8284271" pagecolor="#000000" showgrid="false">
    <inkscape:grid id="grid3784" empspacing="5" enabled="true" snapvisiblegridlinesonly="true" type="xygrid" visible="true"/>
  </sodipodi:namedview>
  <g id="capa1" inkscape:groupmode="layer" inkscape:label="Capa 1">
    <g id="flowRoot2993">
      <g id="g851">
        <path id="path3002" class="st0" d="M166.09,142.11c0,12.39-4.84,21.98-14.53,28.78-9.69,6.8-23.33,10.2-40.93,10.2-32.71,0-51.68-11.37-56.89-34.11l17.63-3.53c2.03,8.07,6.35,13.99,12.96,17.77,6.61,3.78,15.6,5.67,26.97,5.67,11.75,0,20.82-2.02,27.2-6.05,6.38-4.03,9.58-9.96,9.58-17.77,0-4.38-1-7.94-3-10.67-2-2.73-4.81-4.99-8.43-6.77-3.62-1.78-7.94-3.27-12.96-4.48-5.02-1.21-10.58-2.51-16.68-3.91-10.61-2.35-18.66-4.7-24.15-7.05-5.49-2.35-9.83-4.97-13.01-7.86-3.18-2.89-5.61-6.27-7.29-10.15-1.68-3.87-2.53-8.32-2.53-13.34,0-11.5,4.4-20.36,13.2-26.58,8.8-6.23,21.39-9.34,37.78-9.34,15.25,0,26.9,2.33,34.97,7,8.07,4.67,13.72,12.63,16.96,23.87l-17.91,3.14c-1.97-7.11-5.72-12.28-11.24-15.48-5.53-3.21-13.18-4.81-22.96-4.81-10.74,0-18.93,1.78-24.58,5.34-5.65,3.56-8.48,8.86-8.48,15.91,0,4.13,1.1,7.54,3.29,10.24,2.19,2.7,5.35,4.99,9.48,6.86,4.13,1.87,12.36,4.18,24.68,6.91,4.13.95,8.24,1.92,12.34,2.91,4.1.98,8.02,2.16,11.77,3.53,3.75,1.37,7.26,2.97,10.53,4.81,3.27,1.84,6.11,4.1,8.53,6.77,2.41,2.67,4.3,5.81,5.67,9.43,1.37,3.62,2.05,7.88,2.05,12.77h0Z" inkscape:connector-curvature="0"/>
        <path id="path3004" class="st0" d="M228.02,178.41c-5.65,1.52-11.43,2.29-17.34,2.29-13.72,0-20.58-7.78-20.58-23.35v-68.8h-11.91v-12.48h12.58l5.05-23.06h11.43v23.06h19.06v12.48h-19.06v65.08c0,4.95.81,8.43,2.43,10.43,1.62,2,4.43,3,8.43,3,2.29,0,5.59-.44,9.91-1.33v12.67Z" inkscape:connector-curvature="0"/>
        <path id="path3006" class="st0" d="M255.66,131.25c0,11.82,2.45,20.93,7.34,27.35,4.89,6.42,12.04,9.62,21.44,9.62,7.43,0,13.39-1.49,17.87-4.48,4.48-2.99,7.51-6.77,9.1-11.34l15.06,4.29c-6.16,16.26-20.17,24.39-42.02,24.39-15.25,0-26.85-4.54-34.83-13.63-7.97-9.08-11.96-22.58-11.96-40.5s3.99-30.08,11.96-39.16c7.97-9.08,19.36-13.63,34.16-13.63,30.3,0,45.45,18.26,45.45,54.79v2.29h-73.56ZM311.49,118.1c-.95-10.86-3.72-18.79-8.29-23.77-4.57-4.99-11.15-7.48-19.72-7.48-8.32,0-14.91,2.78-19.77,8.34-4.86,5.56-7.48,13.2-7.86,22.92h55.65Z" inkscape:connector-curvature="0"/>
        <path id="path3008" class="st0" d="M377.43,181.08c-10.35,0-18.14-2.73-23.35-8.19-5.21-5.46-7.81-12.96-7.81-22.49,0-10.67,3.51-18.87,10.53-24.58,7.02-5.72,18.34-8.77,33.97-9.15l23.15-.38v-5.62c0-8.39-1.78-14.39-5.34-18.01-3.56-3.62-9.15-5.43-16.77-5.43-7.69,0-13.28,1.3-16.77,3.91-3.49,2.6-5.59,6.77-6.29,12.48l-17.91-1.62c2.92-18.55,16.71-27.82,41.35-27.82,12.96,0,22.71,2.97,29.25,8.91,6.54,5.94,9.81,14.53,9.81,25.77v44.4c0,5.08.67,8.91,2,11.48,1.33,2.57,3.87,3.86,7.62,3.86,1.65,0,3.53-.22,5.62-.67v10.67c-4.32,1.02-8.73,1.52-13.24,1.52-6.35,0-10.97-1.67-13.86-5-2.89-3.33-4.53-8.56-4.91-15.67h-.57c-4.38,7.88-9.48,13.45-15.29,16.72-5.81,3.27-12.88,4.91-21.2,4.91ZM381.34,168.22c6.29,0,11.88-1.43,16.77-4.29,4.89-2.86,8.75-6.78,11.58-11.77,2.83-4.99,4.24-10.12,4.24-15.39v-8.48l-18.77.38c-8.07.13-14.18.95-18.34,2.48-4.16,1.52-7.35,3.88-9.58,7.05-2.22,3.18-3.34,7.34-3.33,12.48,0,5.59,1.51,9.91,4.53,12.96,3.02,3.05,7.32,4.57,12.91,4.57h0Z" inkscape:connector-curvature="0"/>
        <path id="path3010" class="st0" d="M519.79,179.18v-65.37c0-9.97-1.37-16.87-4.1-20.68-2.73-3.81-7.65-5.72-14.77-5.72-7.31,0-13.09,2.8-17.34,8.39-4.26,5.59-6.38,13.47-6.38,23.63v59.74h-17.06v-81.09c0-12.01-.19-19.34-.57-22.01h16.2c.06.32.13,1.18.19,2.57.06,1.4.14,3,.24,4.81.1,1.81.21,5.22.33,10.24h.29c3.68-7.31,7.91-12.39,12.67-15.25,4.76-2.86,10.58-4.29,17.44-4.29,7.81,0,13.99,1.56,18.53,4.67,4.54,3.11,7.7,8.07,9.48,14.86h.29c3.56-6.92,7.86-11.91,12.91-14.96,5.05-3.05,11.16-4.57,18.34-4.57,10.42,0,17.99,2.83,22.73,8.48,4.73,5.65,7.1,14.93,7.1,27.82v68.7h-16.96v-65.37c0-9.97-1.37-16.87-4.1-20.68-2.73-3.81-7.65-5.72-14.77-5.72-7.5,0-13.32,2.78-17.48,8.34-4.16,5.56-6.24,13.45-6.24,23.68v59.74h-16.96Z" inkscape:connector-curvature="0"/>
        <path id="path3012" class="st1" d="M751.81,111.43c0,14.04-2.68,26.33-8.05,36.88-5.37,10.54-13.07,18.64-23.11,24.3-10.04,5.65-21.88,8.48-35.54,8.48s-25.68-2.8-35.68-8.39c-10.01-5.59-17.64-13.67-22.92-24.25-5.27-10.58-7.91-22.92-7.91-37.02,0-21.47,5.88-38.26,17.63-50.36,11.75-12.1,28.11-18.15,49.07-18.15,13.66,0,25.5,2.72,35.54,8.15,10.04,5.43,17.71,13.32,23.01,23.68,5.3,10.35,7.96,22.58,7.96,36.69h0ZM733.23,111.43c0-16.71-4.18-29.82-12.53-39.35-8.35-9.53-20.15-14.29-35.4-14.29-15.37,0-27.25,4.7-35.64,14.1-8.39,9.4-12.58,22.58-12.58,39.54s4.24,30.19,12.72,40.07c8.48,9.88,20.25,14.82,35.3,14.82,15.5,0,27.39-4.78,35.68-14.34,8.29-9.56,12.43-23.07,12.43-40.54h0Z" inkscape:connector-curvature="0"/>
        <path id="path3014" class="st1" d="M882.26,142.11c0,12.39-4.84,21.98-14.53,28.78-9.69,6.8-23.33,10.2-40.93,10.2-32.71,0-51.68-11.37-56.89-34.11l17.63-3.53c2.03,8.07,6.35,13.99,12.96,17.77,6.61,3.78,15.6,5.67,26.97,5.67,11.75,0,20.82-2.02,27.2-6.05,6.38-4.03,9.58-9.96,9.58-17.77,0-4.38-1-7.94-3-10.67-2-2.73-4.81-4.99-8.43-6.77-3.62-1.78-7.94-3.27-12.96-4.48-5.02-1.21-10.58-2.51-16.68-3.91-10.61-2.35-18.66-4.7-24.15-7.05-5.49-2.35-9.83-4.97-13.01-7.86-3.18-2.89-5.61-6.27-7.29-10.15-1.68-3.87-2.53-8.32-2.53-13.34,0-11.5,4.4-20.36,13.2-26.58,8.8-6.23,21.39-9.34,37.78-9.34,15.25,0,26.9,2.33,34.97,7,8.07,4.67,13.72,12.63,16.96,23.87l-17.91,3.14c-1.97-7.11-5.72-12.28-11.24-15.48-5.53-3.21-13.18-4.81-22.96-4.81-10.74,0-18.93,1.78-24.58,5.34-5.65,3.56-8.48,8.86-8.48,15.91,0,4.13,1.1,7.54,3.29,10.24,2.19,2.7,5.35,4.99,9.48,6.86,4.13,1.87,12.36,4.18,24.68,6.91,4.13.95,8.24,1.92,12.34,2.91,4.1.98,8.02,2.16,11.77,3.53,3.75,1.37,7.26,2.97,10.53,4.81,3.27,1.84,6.11,4.1,8.53,6.77,2.41,2.67,4.3,5.81,5.67,9.43,1.37,3.62,2.05,7.88,2.05,12.77h0Z" inkscape:connector-curvature="0"/>
      </g>
    </g>
  </g>
</svg>